<?xml version="1.0" encoding="UTF-8"?><svg id="b" xmlns="http://www.w3.org/2000/svg" xmlns:xlink="http://www.w3.org/1999/xlink" viewBox="0 0 572.45 712.69"><defs><linearGradient id="c" x1=".09" y1="673.02" x2="205.45" y2="673.02" gradientUnits="userSpaceOnUse"><stop offset="0" stop-color="#91c5c8"/><stop offset="1" stop-color="#9bbce3"/></linearGradient><linearGradient id="d" x1="215.23" y1="166.24" x2="549.84" y2="166.24" xlink:href="#c"/><linearGradient id="e" x1="470.89" y1="103.08" x2="572.45" y2="103.08" gradientUnits="userSpaceOnUse"><stop offset="0" stop-color="#8ac8fa"/><stop offset=".4" stop-color="#527795"/><stop offset=".99" stop-color="#000"/></linearGradient><linearGradient id="f" x1="426.27" y1="356.27" x2="527.83" y2="356.27" gradientUnits="userSpaceOnUse"><stop offset="0" stop-color="#8ac8fa"/><stop offset=".4" stop-color="#527795"/><stop offset=".99" stop-color="#000"/></linearGradient><linearGradient id="g" x1="126.1" y1="419.67" x2="294.52" y2="419.67" gradientUnits="userSpaceOnUse"><stop offset="0" stop-color="#91c5c8"/><stop offset="1" stop-color="#787faf"/></linearGradient><linearGradient id="h" x1="170.49" y1="418.28" x2="504.98" y2="418.28" xlink:href="#c"/></defs><polygon points=".09 633.47 79.18 712.69 205.45 712.69 126.1 633.34 .09 633.47" fill="url(#c)"/><polygon points="215.23 126.68 294.52 205.8 549.84 205.8 470.89 127.11 215.23 126.68" fill="url(#d)"/><polygon points="493.27 .25 572.45 79.43 549.84 205.91 470.89 127.19 493.27 .25" fill="url(#e)"/><polygon points="448.65 253.3 527.83 332.47 504.98 459.25 426.27 380.23 448.65 253.3" fill="url(#f)"/><polygon points="215.23 126.73 294.52 205.91 205.45 712.6 126.1 633.28 215.23 126.73" fill="url(#g)"/><path d="M111.62,0h381.65l-22.38,126.94h-255.55l-22.24,126.1h255.55l-22.38,126.94h-255.55l-44.62,253.04H0L111.62,0Z" fill="#5d75b6"/><polygon points="170.49 379.24 249.9 457.58 504.98 457.58 426.27 378.98 170.49 379.24" fill="url(#h)"/></svg>